<?xml version="1.0" standalone="no"?>
<!DOCTYPE svg PUBLIC "-//W3C//DTD SVG 20010904//EN"
 "http://www.w3.org/TR/2001/REC-SVG-20010904/DTD/svg10.dtd">
<svg version="1.0" xmlns="http://www.w3.org/2000/svg"
 width="698.000000pt" height="206.000000pt" viewBox="0 0 698.000000 206.000000"
 preserveAspectRatio="xMidYMid meet">

<g transform="translate(0.000000,206.000000) scale(0.100000,-0.100000)"
fill="#000000" stroke="none">
<path d="M0 1030 l0 -1030 3490 0 3490 0 0 1030 0 1030 -3490 0 -3490 0 0
-1030z m1295 991 c543 -149 871 -709 730 -1246 -93 -354 -375 -638 -730 -735
-113 -31 -327 -38 -450 -15 -417 77 -747 413 -819 834 -92 538 257 1054 794
1172 119 26 360 21 475 -10z m3758 -609 c84 -39 150 -105 190 -190 30 -63 32
-74 32 -182 0 -109 -2 -119 -32 -182 -44 -94 -109 -160 -202 -206 -73 -36 -78
-37 -185 -37 -104 0 -115 2 -178 32 -138 65 -219 188 -226 344 -9 183 75 337
227 413 74 38 115 46 217 42 78 -3 102 -8 157 -34z m1646 27 c151 -32 221
-161 155 -285 -20 -37 -23 -49 -12 -53 7 -2 34 -25 59 -50 55 -57 74 -115 66
-198 -18 -177 -153 -252 -431 -240 -72 3 -139 8 -148 12 -17 7 -18 35 -18 406
l0 399 23 5 c78 17 237 19 306 4z m-4079 -409 l0 -410 -85 0 -85 0 0 410 0
410 85 0 85 0 0 -410z m516 160 l159 -249 3 249 2 250 80 0 80 0 0 -410 0
-410 -64 0 -64 0 -154 236 -153 236 -5 -234 -5 -233 -80 0 c-58 0 -80 3 -79
13 1 6 2 190 3 407 l1 395 59 0 59 0 158 -250z m829 -2 l160 -253 3 55 c2 30
2 144 0 253 l-3 197 83 0 82 0 -2 -407 -3 -408 -65 0 -64 0 -156 238 -155 237
-3 -240 -2 -240 -80 0 -80 0 0 403 c0 222 3 407 7 410 3 4 32 7 62 7 l56 0
160 -252z m1637 -80 l3 -333 108 0 107 1 0 -41 c0 -22 -3 -57 -6 -77 l-7 -38
-188 0 -189 0 0 410 0 410 85 0 85 0 2 -332z m545 30 c-4 -166 -7 -350 -7
-410 l0 -109 -82 3 -83 3 -3 408 -2 407 92 0 91 0 -6 -302z"/>
<path d="M890 1963 c-261 -43 -492 -190 -639 -406 -48 -70 -108 -204 -133
-294 -32 -117 -32 -345 0 -463 100 -368 387 -634 756 -699 77 -14 245 -14 322
0 490 86 836 551 774 1039 -21 168 -88 334 -185 459 -52 68 -154 166 -215 208
-104 70 -252 131 -374 152 -57 11 -253 13 -306 4z m668 -502 c70 -36 72 -45
72 -353 0 -251 -2 -276 -19 -304 -25 -41 -79 -82 -119 -90 -30 -6 -32 -9 -32
-51 0 -107 -45 -111 -200 -18 l-108 65 -281 0 c-318 0 -323 1 -394 79 l-37 41
0 276 c0 313 0 312 82 353 42 20 55 21 521 21 450 0 480 -1 515 -19z"/>
<path d="M544 1431 c-74 -34 -74 -33 -74 -321 0 -287 2 -295 76 -341 38 -24
43 -24 332 -27 l293 -3 107 -65 c59 -35 115 -64 125 -64 14 0 17 9 17 53 0 65
5 72 54 80 52 8 82 30 106 77 18 36 20 58 20 290 0 208 -3 256 -16 281 -30 58
-38 59 -541 59 -426 0 -461 -2 -499 -19z m171 -199 c6 -4 18 -19 28 -34 11
-18 26 -28 41 -28 47 0 54 -30 17 -73 -9 -11 -14 -32 -12 -53 3 -41 -17 -53
-62 -36 -23 9 -35 8 -57 -3 -38 -20 -66 0 -56 40 5 21 2 33 -14 50 -32 34 -24
69 18 75 23 4 38 14 52 38 20 33 28 37 45 24z m349 -7 c8 -8 18 -24 21 -35 4
-14 15 -20 35 -20 43 0 56 -30 28 -66 -15 -18 -21 -38 -19 -60 3 -43 -22 -58
-61 -38 -24 13 -32 13 -57 0 -39 -21 -67 -2 -57 39 5 21 2 33 -14 50 -32 34
-24 69 18 75 23 4 38 14 52 38 22 36 32 39 54 17z m331 7 c6 -4 18 -19 28 -34
11 -18 26 -28 42 -28 38 0 49 -32 23 -66 -15 -18 -21 -38 -19 -60 3 -43 -22
-58 -61 -38 -24 13 -32 13 -57 0 -39 -21 -67 -2 -57 39 5 21 2 33 -14 50 -32
34 -24 69 18 75 23 4 38 14 52 38 20 33 28 37 45 24z"/>
<path d="M1050 1124 c0 -86 1 -91 24 -102 30 -14 36 -8 36 38 0 24 7 43 20 55
24 22 19 31 -19 38 -19 4 -36 17 -45 34 -15 27 -15 24 -16 -63z"/>
<path d="M1360 1190 c-9 -22 -21 -31 -46 -36 -39 -7 -43 -23 -14 -49 15 -14
19 -26 15 -47 -9 -41 1 -50 36 -33 26 14 32 14 58 1 35 -18 41 -13 41 34 0 24
7 43 20 55 24 22 19 31 -19 38 -20 4 -35 17 -46 37 -20 38 -29 38 -45 0z"/>
<path d="M4787 1287 c-124 -39 -196 -202 -154 -348 33 -111 115 -171 236 -171
151 0 234 91 235 258 0 68 -4 89 -28 137 -54 111 -170 161 -289 124z"/>
<path d="M6538 1314 c-5 -4 -8 -47 -8 -96 l0 -88 54 0 c76 0 104 13 122 56 18
42 11 84 -17 110 -21 19 -137 33 -151 18z"/>
<path d="M6558 993 l-28 -4 0 -114 c0 -73 4 -116 11 -121 19 -11 132 -8 170 5
111 37 133 175 35 216 -37 15 -145 26 -188 18z"/>
</g>
</svg>
